HIERARCHY
ROOT Hips
{
	OFFSET 0 0 0
	CHANNELS 6 Xposition Yposition Zposition Xrotation Yrotation Zrotation
	JOINT LeftHandThumb1
	{
		OFFSET 1.78 -1.1 1.54
		CHANNELS 3 Xrotation Yrotation Zrotation
		JOINT LeftHandThumb2
		{
			OFFSET 3.18423 0 0
			CHANNELS 3 Xrotation Yrotation Zrotation
			JOINT LeftHandThumb3
			{
				OFFSET 3.62493 0 0
				CHANNELS 3 Xrotation Yrotation Zrotation
				JOINT LeftHandThumb4
				{
					OFFSET 2.65828 0 0
					CHANNELS 3 Xrotation Yrotation Zrotation
					End Site
					{
						OFFSET -0 0 0
					}
				}
			}
		}
	}
	JOINT LeftHandIndex1
	{
		OFFSET 7.4475 0.841835 3.96155
		CHANNELS 3 Xrotation Yrotation Zrotation
		JOINT LeftHandIndex2
		{
			OFFSET 4.09997 0 0
			CHANNELS 3 Xrotation Yrotation Zrotation
			JOINT LeftHandIndex3
			{
				OFFSET 1.88792 0 0
				CHANNELS 3 Xrotation Yrotation Zrotation
				JOINT LeftHandIndex4
				{
					OFFSET 1.76905 0 0
					CHANNELS 3 Xrotation Yrotation Zrotation
					End Site
					{
						OFFSET -0 0 0
					}
				}
			}
		}
	}
	JOINT LeftHandMiddle1
	{
		OFFSET 8.15202 0.976627 0.886065
		CHANNELS 3 Xrotation Yrotation Zrotation
		JOINT LeftHandMiddle2
		{
			OFFSET 4.6 0 0
			CHANNELS 3 Xrotation Yrotation Zrotation
			JOINT LeftHandMiddle3
			{
				OFFSET 2.00908 0 0
				CHANNELS 3 Xrotation Yrotation Zrotation
				JOINT LeftHandMiddle4
				{
					OFFSET 1.47333 0 0
					CHANNELS 3 Xrotation Yrotation Zrotation
					End Site
					{
						OFFSET -0 0 0
					}
				}
			}
		}
	}
	JOINT LeftHandRing1
	{
		OFFSET 7.18367 0.497501 -1.72915
		CHANNELS 3 Xrotation Yrotation Zrotation
		JOINT LeftHandRing2
		{
			OFFSET 4.36337 0 0
			CHANNELS 3 Xrotation Yrotation Zrotation
			JOINT LeftHandRing3
			{
				OFFSET 2.36208 0 0
				CHANNELS 3 Xrotation Yrotation Zrotation
				JOINT LeftHandRing4
				{
					OFFSET 1.73219 0 0
					CHANNELS 3 Xrotation Yrotation Zrotation
					End Site
					{
						OFFSET -0 0 0
					}
				}
			}
		}
	}
	JOINT LeftHandPinky1
	{
		OFFSET 7.41209 -0.417872 -3.72321
		CHANNELS 3 Xrotation Yrotation Zrotation
		JOINT LeftHandPinky2
		{
			OFFSET 2.81501 0 0
			CHANNELS 3 Xrotation Yrotation Zrotation
			JOINT LeftHandPinky3
			{
				OFFSET 2.01927 0 0
				CHANNELS 3 Xrotation Yrotation Zrotation
				JOINT LeftHandPinky4
				{
					OFFSET 1.19603 0 0
					CHANNELS 3 Xrotation Yrotation Zrotation
					End Site
					{
						OFFSET -0 0 0
					}
				}
			}
		}
	}
}
MOTION
Frames: 9
Frame Time: 0.00833333
0 0.000000 0 0 0 0 0 0 0 0 0 0 0 0 0 0 0 0 0 0 0 0 0 0 0 0 0 0 0 0 0 0 0 0 0 0 0 0 0 0 0 0 0 0 0 0 0 0 0 0 0 0 0 0 0 0 0 0 0 0 0 0 0 0 0 0
27.09951477 27.32577209 18.81314545 6.86744715 -84.76976159 -4.70101425 -52.77713172 -24.98124554 -46.05971814 0.00000001 -5.82033589 0.00000016 0 -3.88410332 0.0000001 -0 0 0 -7.30252452 -3.68106552 0.8252527 -0 0 0.03667712 -0 0 4.77845329 -0 0 0 0.75168676 -1.31886005 3.04441047 -0 0 -2.88169891 -0 0 5.25875098 -0 0 0 -0.67620544 3.28418081 1.45685171 -0 0 0.20117608 -0 0 12.20479009 -0 0 0 -0.47842845 9.50378162 -1.55165452 -0 0 0.32828856 -0 0 1.46568007 -0 0 0
27.09122314 27.32513123 18.82614899 6.72389608 -84.80160406 -4.81573897 -52.79824627 -24.96612418 -46.09363237 0.00000001 -5.78588356 0.00000016 0 -3.86911127 0.0000001 -0 0 0 -7.28331809 -3.66156476 0.80829739 -0 0 0.03794646 -0 0 4.77972246 -0 0 0 0.76889089 -1.30355806 3.01535191 -0 0 -2.80812225 -0 0 5.20856734 -0 0 0 -0.65371684 3.30336774 1.41255355 -0 0 0.19964544 -0 0 12.20697023 -0 0 0 -0.45047985 9.52271354 -1.58587152 -0 0 0.32397223 -0 0 1.46943356 -0 0 0
27.08320618 27.32456665 18.83674316 6.72143026 -84.82758007 -4.80155502 -52.81626192 -24.95060396 -46.12622778 0.00000001 -5.77202466 0.00000016 0 -3.84976199 0.0000001 -0 0 -0 -7.27928268 -3.65140885 0.79737782 -0 0 0.04036863 -0 0 4.78214465 -0 0 0 0.77040349 -1.29464027 2.99317303 -0 0 -2.73288136 -0 0 5.16443893 -0 0 0 -0.64644951 3.31860087 1.37607004 -0 0 0.19104867 -0 0 12.22082379 -0 0 0 -0.4387236 9.54000537 -1.61807341 -0 0 0.32040044 -0 0 1.47451739 -0 0 0
27.07333679 27.32328491 18.84757233 6.7836142 -84.8442871 -4.72328783 -52.83301866 -24.93486522 -46.15742071 0.00000001 -5.76025788 0.00000015 0 -3.83464686 0.0000001 -0 -0 -0 -7.27459531 -3.6503604 0.7766242 -0 0 0.04146627 -0 0 4.78324236 -0 0 0 0.76721148 -1.29880901 2.96176486 -0 0 -2.66425024 -0 0 5.11576102 -0 0 0 -0.6440865 3.3223404 1.33034967 -0 0 0.19410081 -0 0 12.2201409 -0 0 0 -0.43323047 9.54445158 -1.65992577 -0 0 0.31594249 -0 0 1.47943636 -0 0 0
27.06703796 27.31886597 18.85643158 6.85605358 -84.86406115 -4.63669903 -52.84758352 -24.91583947 -46.18982556 0.00000001 -5.74121648 0.00000015 0 -3.81927083 0.0000001 -0 -0 0 -7.26575719 -3.64353508 0.7520268 -0 0 0.04415853 -0 0 4.78593439 -0 0 0 0.76800144 -1.29516319 2.92752071 -0 0 -2.60040091 -0 0 5.06455876 -0 0 0 -0.63627482 3.32819324 1.28236359 -0 0 0.20233293 -0 0 12.21338778 -0 0 0 -0.42019548 9.55221781 -1.70376678 -0 0 0.31450824 -0 0 1.48760557 -0 0 0
27.06097412 27.31619873 18.86486969 6.95249756 -84.88459809 -4.53108074 -52.86499878 -24.89487156 -46.22421196 0.00000001 -5.73612896 0.00000015 0 -3.80763592 0.0000001 -0 -0 -0 -7.25800866 -3.63585219 0.73586453 -0 0 0.04743752 -0 0 4.7892136 -0 0 0 0.76831929 -1.28852279 2.90674192 -0 0 -2.53272897 -0 0 5.01992182 -0 0 0 -0.62672145 3.34171509 1.2528689 -0 0 0.22576837 -0 0 12.18878938 -0 0 0 -0.40441087 9.56823967 -1.73394991 -0 0 0.31282325 -0 0 1.49565603 -0 0 0
27.0594574 27.31348877 18.87132721 7.01420027 -84.91517089 -4.46485054 -52.87422356 -24.87420618 -46.25370287 0.00000001 -5.76134185 0.00000015 0 -3.78919696 0.0000001 -0 0 0 -7.25375002 -3.62158152 0.73311752 -0 0 0.05202217 -0 0 4.79379808 -0 0 0 0.76888129 -1.27520246 2.89746833 -0 0 -2.46507928 -0 0 4.97794368 -0 0 0 -0.61776046 3.36648212 1.23702386 -0 0 0.20638405 -0 0 12.21266584 -0 0 0 -0.39943508 9.59810732 -1.74687636 -0 0 0.31113383 -0 0 1.50322628 -0 0 0
27.05285339 27.31160889 18.87988281 7.16089132 -84.93008121 -4.29920697 -52.88150771 -24.85355231 -46.27995758 0.00000001 -5.79471123 0.00000016 0 -3.76819731 0.0000001 -0 -0 -0 -7.26158486 -3.62753313 0.7199824 -0 0 0.05623668 -0 0 4.79801264 -0 0 0 0.75844896 -1.28194352 2.87701291 -0 0 -2.40092968 -0 0 4.93577348 -0 0 0 -0.62156088 3.36990633 1.20822697 -0 0 0.20877966 -0 0 12.21093478 -0 0 0 -0.40509303 9.60406831 -1.7713834 -0 0 0.30840999 -0 0 1.50934221 -0 0 0
